<svg id="Capa_1" enable-background="new 0 0 512 512" height="512" viewBox="0 0 512 512" width="512" xmlns="http://www.w3.org/2000/svg"><g><path d="m154.217 299.077c-2.154-.761-4.358-1.56-6.555-2.392v-35.084c5.522 1.322 8.813 4.114 9.106 4.369 3.014 2.73 7.671 2.525 10.434-.47 2.778-3.012 2.588-7.706-.424-10.484-.422-.389-7.51-6.776-19.116-8.517v-7.165c0-4.097-3.322-7.419-7.419-7.419s-7.419 3.322-7.419 7.419v7.735c-1.101.242-2.218.521-3.36.866-10.613 3.197-18.543 12.28-20.696 23.704-1.962 10.416 1.374 20.46 8.709 26.213 3.886 3.048 8.723 5.84 15.348 8.789v44.485c-5.731-.422-9.701-1.821-16.206-6.077-3.429-2.244-8.028-1.282-10.27 2.147-2.243 3.429-1.282 8.027 2.147 10.27 9.484 6.204 15.964 8.054 24.329 8.525v8.023c0 4.097 3.322 7.419 7.419 7.419s7.419-3.322 7.419-7.419v-8.613c16.645-3.266 26.368-16.991 28.523-29.812 2.769-16.483-5.853-30.815-21.969-36.512zm-27.585-12.9c-2.958-2.321-4.217-6.838-3.284-11.79.836-4.437 3.765-9.768 9.475-11.924v27.671c-2.33-1.264-4.437-2.582-6.191-3.957zm34.919 46.953c-1.142 6.792-5.872 13.991-13.89 16.86v-37.499c.535.192 1.059.382 1.61.577 13.71 4.845 12.866 16.58 12.28 20.062z"/><path d="m511.591 289.53c-1.276-5.798-5.363-10.481-10.935-12.529l-21.235-7.805c-3.844-1.413-8.109.558-9.523 4.404-1.413 3.846.558 8.11 4.405 9.523l21.235 7.805c1.105.406 1.453 1.296 1.561 1.79.109.494.167 1.447-.667 2.28l-189.555 189.556c-.835.835-1.789.775-2.281.667-.494-.109-1.383-.456-1.789-1.563l-26.639-72.479c-1.756-4.776-5.502-8.521-10.277-10.276l-72.478-26.638c-1.106-.407-1.453-1.296-1.562-1.79s-.167-1.447.666-2.28l189.557-189.556c.834-.834 1.785-.775 2.28-.667.494.109 1.383.456 1.789 1.562l26.638 72.478c1.755 4.777 5.502 8.522 10.278 10.277l18.434 6.775c3.846 1.415 8.11-.558 9.523-4.404s-.558-8.11-4.405-9.523l-18.435-6.776c-.681-.25-1.216-.785-1.466-1.467l-26.638-72.478c-2.048-5.572-6.731-9.659-12.528-10.935-5.795-1.277-11.763.469-15.962 4.666l-7.176 7.176v-73.606c0-9.545-7.766-17.311-17.311-17.311h-75.564c6.913-13.44 4.753-30.378-6.493-41.623-9.628-9.628-23.59-12.791-36.099-8.791-4.831-14.014-18.143-24.114-33.777-24.114-15.633 0-28.944 10.098-33.776 24.11-12.508-4.007-26.456-.85-36.099 8.794-6.748 6.747-10.464 15.718-10.464 25.261 0 5.788 1.376 11.363 3.958 16.362h-6.224c-4.097 0-7.419 3.322-7.419 7.419s3.322 7.419 7.419 7.419h52.87v70.219c-8.208-1.494-16.564-2.267-24.965-2.267-15.464 0-30.016 2.41-43.942 7.048l-55.762.002v-72.529c0-1.364 1.109-2.473 2.473-2.473h33.825c4.097 0 7.419-3.322 7.419-7.419s-3.322-7.419-7.419-7.419h-33.827c-9.545 0-17.311 7.766-17.311 17.311v124.584c0 .045.006.089.007.135-16.32 22.946-25.925 50.983-25.925 81.221 0 30.17 9.462 58.944 27.363 83.212 1.455 1.972 3.7 3.015 5.976 3.015 1.53 0 3.073-.471 4.398-1.449 3.298-2.432 3.999-7.077 1.566-10.375-16.006-21.698-24.466-47.427-24.466-74.404 0-69.268 56.354-125.621 125.622-125.621 58.06 0 107.971 39.116 121.92 95.314l-12.56 12.56c-3.757-23.326-14.875-44.809-32.117-61.599-20.82-20.272-48.252-31.437-77.243-31.437-61.086 0-110.784 49.697-110.784 110.783s49.697 110.784 110.784 110.784c25.212 0 49.632-8.629 69.252-24.375l15.902 5.844c-23.117 21.319-53.577 33.369-85.154 33.369-28.66 0-56.713-9.949-78.991-28.013-3.182-2.581-7.854-2.093-10.435 1.09s-2.093 7.854 1.09 10.436c24.912 20.201 56.284 31.326 88.336 31.326 37.819 0 74.2-15.449 100.592-42.534l19.721 7.248c.682.251 1.217.786 1.467 1.468l26.638 72.478c2.048 5.572 6.731 9.659 12.527 10.935 1.25.275 2.508.41 3.754.41 4.534 0 8.915-1.783 12.209-5.076l189.557-189.555c4.197-4.197 5.942-10.163 4.667-15.96zm-470.835-78.706v-19.739h24.486c-8.889 5.659-17.1 12.288-24.486 19.739zm308.811-107.107v72.529h-124.67v-75.002h122.197c1.364 0 2.473 1.11 2.473 2.473zm-95.021-48.442c8.143 8.144 8.143 21.395.001 29.537-.325.326-.956.866-2.051 1.594h-36.147c10.769-20.257 13.561-30.169 14.282-35.149 7.948-3.886 17.55-2.347 23.915 4.018zm-59.385-28.559c11.517 0 20.887 9.37 20.887 20.886 0 2.144-1.22 11.236-16.599 38.803h-8.575c-15.376-27.56-16.599-36.655-16.599-38.803 0-11.516 9.369-20.886 20.886-20.886zm-59.383 58.097c-3.945-3.945-6.118-9.19-6.118-14.769s2.173-10.824 6.118-14.769c6.376-6.376 15.964-7.906 23.914-4.014.722 4.982 3.512 14.889 14.281 35.145h-36.145c-1.095-.727-1.724-1.267-2.05-1.593zm44.485 16.431h29.796v75.002h-25.689c-.033 0-.064.004-.097.005-1.33-.438-2.668-.85-4.01-1.248zm47.984 98.836c-4.036-3.239-8.243-6.238-12.59-8.995h133.911v1.076l-28.72 28.72h-71.645c-6.214-7.613-13.232-14.601-20.956-20.801zm31.552 35.639h46.21l-31.618 31.618c-3.527-11.104-8.447-21.732-14.592-31.618zm-119.339 169.883c-52.905 0-95.945-43.041-95.945-95.945s43.041-95.945 95.945-95.945c50.931 0 93.616 41.008 95.846 91.712l-54.28 54.28c-4.197 4.197-5.942 10.164-4.666 15.961s5.364 10.48 10.935 12.528l4.677 1.719c-15.537 10.185-33.773 15.69-52.512 15.69z"/><path d="m363.781 395.1c.934 0 1.886-.178 2.804-.554 3.793-1.55 5.611-5.882 4.06-9.675l-42.718-104.504c-1.549-3.792-5.88-5.613-9.675-4.06-3.793 1.55-5.611 5.882-4.06 9.675l42.718 104.504c1.175 2.874 3.946 4.614 6.871 4.614z"/><path d="m275.576 311.305c-5.198 5.198-7.74 12.336-7.158 20.099.551 7.344 3.879 14.414 9.37 19.905 5.492 5.492 12.561 8.82 19.906 9.37.728.055 1.451.082 2.167.082 6.918 0 13.221-2.53 17.932-7.24 5.198-5.198 7.74-12.336 7.158-20.099-.551-7.345-3.879-14.414-9.37-19.906-5.492-5.492-12.561-8.82-19.906-9.37-7.769-.585-14.902 1.961-20.099 7.159zm29.513 12.704c2.981 2.982 4.781 6.719 5.066 10.523.254 3.385-.76 6.403-2.855 8.498-2.094 2.094-5.115 3.104-8.497 2.854-3.804-.285-7.541-2.084-10.523-5.066-2.981-2.982-4.781-6.719-5.066-10.522-.254-3.385.76-6.403 2.855-8.498 1.883-1.883 4.512-2.892 7.485-2.892.333 0 .671.013 1.012.038 3.804.284 7.541 2.083 10.523 5.065-.001 0-.001 0 0 0z"/><path d="m391.911 369.368c6.919 0 13.222-2.53 17.932-7.24 10.419-10.419 9.427-28.365-2.211-40.005 0 0 0 0-.001 0-11.638-11.639-29.584-12.63-40.004-2.212-10.419 10.419-9.427 28.365 2.212 40.004 5.492 5.492 12.561 8.82 19.906 9.37.729.056 1.451.083 2.166.083zm-13.791-38.964c1.965-1.965 4.63-2.918 7.496-2.918 3.891 0 8.152 1.759 11.523 5.13 5.854 5.854 6.846 14.387 2.211 19.021-2.094 2.093-5.113 3.107-8.496 2.854-3.804-.285-7.542-2.084-10.523-5.066-5.853-5.855-6.845-14.387-2.211-19.021z"/></g></svg>