<?xml version="1.0" encoding="iso-8859-1"?>
<!-- Generator: Adobe Illustrator 19.0.0, SVG Export Plug-In . SVG Version: 6.00 Build 0)  -->
<svg version="1.1" id="Capa_1" xmlns="http://www.w3.org/2000/svg" xmlns:xlink="http://www.w3.org/1999/xlink" x="0px" y="0px"
	 viewBox="0 0 496 496" style="enable-background:new 0 0 496 496;" xml:space="preserve">
<g>
	<g>
		<g>
			<path d="M360,240c0-61.76-50.24-112-112-112s-112,50.24-112,112s50.24,112,112,112S360,301.76,360,240z M248,336
				c-52.936,0-96-43.064-96-96c0-52.936,43.064-96,96-96c52.936,0,96,43.064,96,96C344,292.936,300.936,336,248,336z"/>
			<path d="M256,176.408V160h-16v16.408c-17.952,2.016-32,17.112-32,35.592c0,19.848,16.152,36,36,36h8c11.032,0,20,8.968,20,20
				c0,11.032-8.968,20-20,20h-8c-11.032,0-20-8.968-20-20v-4h-16v4c0,18.48,14.048,33.576,32,35.592V320h16v-16.408
				c17.952-2.016,32-17.112,32-35.592c0-19.848-16.152-36-36-36h-8c-11.032,0-20-8.968-20-20s8.968-20,20-20h8
				c11.032,0,20,8.968,20,20v4h16v-4C288,193.52,273.952,178.424,256,176.408z"/>
			<path d="M16,64h208v48h16V40c0-22.056-17.944-40-40-40H40C17.944,0,0,17.944,0,40v312h16V64z M16,40c0-13.232,10.768-24,24-24
				h160c13.232,0,24,10.768,24,24v8H16V40z"/>
			<rect x="80" y="400" width="80" height="16"/>
			<path d="M0,408c0,22.056,17.944,40,40,40h160c22.056,0,40-17.944,40-40v-40H0V408z M16,384h208v24c0,13.232-10.768,24-24,24H40
				c-13.232,0-24-10.768-24-24V384z"/>
			<path d="M456,48H296c-22.056,0-40,17.944-40,40v24h8h8h208v288h16V88C496,65.944,478.056,48,456,48z M480,96H272v-8
				c0-13.232,10.768-24,24-24h160c13.232,0,24,10.768,24,24V96z"/>
			<rect x="336" y="448" width="80" height="16"/>
			<path d="M272,368h-16v88c0,22.056,17.944,40,40,40h160c22.056,0,40-17.944,40-40v-40H272V368z M480,432v24
				c0,13.232-10.768,24-24,24H296c-13.232,0-24-10.768-24-24v-24H480z"/>
			<polygon points="376,256 376,272 400,272 400,328 466,240 400,152 400,208 376,208 376,224 416,224 416,200 446,240 416,280 
				416,256 			"/>
			<polygon points="120,224 120,208 96,208 96,152 30,240 96,328 96,272 120,272 120,256 80,256 80,280 50,240 80,200 80,224 			"/>
			<rect x="384" y="368" width="16" height="16"/>
			<rect x="352" y="368" width="16" height="16"/>
			<rect x="320" y="368" width="16" height="16"/>
			<rect x="160" y="96" width="16" height="16"/>
			<rect x="128" y="96" width="16" height="16"/>
			<rect x="96" y="96" width="16" height="16"/>
		</g>
	</g>
</g>
<g>
</g>
<g>
</g>
<g>
</g>
<g>
</g>
<g>
</g>
<g>
</g>
<g>
</g>
<g>
</g>
<g>
</g>
<g>
</g>
<g>
</g>
<g>
</g>
<g>
</g>
<g>
</g>
<g>
</g>
</svg>
