<svg id="Capa_1" enable-background="new 0 0 512 512" height="512" viewBox="0 0 512 512" width="512" xmlns="http://www.w3.org/2000/svg"><path d="m276 258.994c16.542 0 30-13.458 30-30s-13.458-30-30-30h-40c-5.523 0-10 4.477-10 10v30h-10c-5.523 0-10 4.477-10 10s4.477 10 10 10h10v20.001h-10c-5.523 0-10 4.477-10 10s4.477 10 10 10h10v9.998c0 5.523 4.477 10 10 10s10-4.477 10-10v-9.998h30c5.522 0 10-4.477 10-10s-4.478-10-10-10h-30v-20.001zm-30-40h30c5.514 0 10 4.486 10 10s-4.486 10-10 10h-30z"/><path d="m504.557 119.345c-87.629-23.181-170.384-11.355-250.418.081-37.244 5.322-75.755 10.824-114.224 12.531-5.517.245-9.792 4.916-9.547 10.434.245 5.517 4.921 9.785 10.433 9.547 39.445-1.75 78.448-7.323 116.167-12.712 79.224-11.32 154.188-22.031 235.031-2.431v232.922c-82.99-18.954-161.662-7.713-237.863 3.176-75.419 10.775-153.336 21.906-234.136 2.128v-232.908c9.515 2.2 19.207 4.055 28.948 5.541 5.456.835 10.561-2.919 11.393-8.378.833-5.46-2.918-10.561-8.378-11.393-13.352-2.036-26.599-4.804-39.375-8.227-3-.806-6.208-.167-8.676 1.726-2.466 1.892-3.912 4.824-3.912 7.933v253.465c0 4.526 3.04 8.488 7.412 9.659 36.998 9.914 73.094 13.521 108.48 13.52 48.214 0 95.101-6.699 141.076-13.268 81.651-11.667 158.775-22.688 242.474-.545 3.001.793 6.199.149 8.658-1.744s3.899-4.82 3.899-7.924v-253.465c.001-4.538-3.055-8.507-7.442-9.668z"/><path d="m40 218.133v92.496c0 5.523 4.477 10 10 10 16.542 0 30 13.458 30 30 0 1.121-.065 2.27-.194 3.414-.307 2.725.519 5.456 2.284 7.554s4.313 3.381 7.05 3.546c8.877.537 17.746.781 26.612.78 45.766 0 91.297-6.505 135.559-12.83 25.514-3.646 52.646-7.422 79.198-10.014 5.497-.537 9.518-5.428 8.981-10.924s-5.416-9.515-10.925-8.981c-26.962 2.632-54.347 6.443-80.084 10.121-48.766 6.968-99.084 14.155-148.729 12.34-2.182-21.895-18.55-39.68-39.752-44.002v-74.484c18.231-3.646 32.875-17.104 38.02-34.979 53.665 1.712 106.46-5.037 164.606-13.346 51.435-7.349 100.188-14.313 149.628-12.513 2.208 21.865 18.564 39.619 39.746 43.937v74.502c-21.337 4.265-37.75 21.957-39.79 44.454-.499 5.5 3.556 10.363 9.056 10.862 5.503.499 10.364-3.556 10.862-9.056 1.408-15.531 14.251-27.243 29.872-27.243 5.522 0 10-4.477 10-10v-92.514c0-5.523-4.478-10-10-10-16.542 0-30-13.458-30-30 0-1.108.063-2.239.189-3.363.305-2.726-.523-5.456-2.29-7.553s-4.317-3.377-7.055-3.54c-54.699-3.253-109.779 4.617-163.047 12.229-60.245 8.608-114.577 15.516-169.479 12.817-5.351-.251-9.96 3.74-10.449 9.076-1.422 15.515-14.263 27.215-29.87 27.215-5.522-.001-9.999 4.476-9.999 9.999z"/><path d="m94.651 152.053c.227.015.451.023.675.023 5.219 0 9.616-4.051 9.968-9.335.368-5.51-3.802-10.275-9.313-10.643h-.007c-5.512-.363-10.272 3.803-10.639 9.313s3.806 10.275 9.316 10.642z"/><path d="m374.463 319.971c-5.522 0-9.996 4.477-9.996 10s4.48 10 10.003 10 10-4.477 10-10-4.478-10-10-10z"/></svg>