<svg id="outline" height="512" viewBox="0 0 512 512" width="512" xmlns="http://www.w3.org/2000/svg"><path d="m440 216h-72v-176a24.0275 24.0275 0 0 0 -24-24h-272a24.0275 24.0275 0 0 0 -24 24v400a56.06322 56.06322 0 0 0 56 56h304a56.06322 56.06322 0 0 0 56-56v-200a24.0275 24.0275 0 0 0 -24-24zm-336 264a40.04552 40.04552 0 0 1 -40-40v-400a8.00917 8.00917 0 0 1 8-8h272a8.00917 8.00917 0 0 1 8 8v400a55.82355 55.82355 0 0 0 16.86151 40zm344-40a40 40 0 0 1 -80 0v-208h72a8.00917 8.00917 0 0 1 8 8z"/><circle cx="88" cy="56" r="8"/><circle cx="112" cy="56" r="8"/><circle cx="136" cy="56" r="8"/><path d="m136 120h-40a8.00008 8.00008 0 0 0 -8 8v40a8.00008 8.00008 0 0 0 8 8h40a8.00008 8.00008 0 0 0 8-8v-40a8.00008 8.00008 0 0 0 -8-8zm-8 40h-24v-24h24z"/><path d="m160 160h24v16h-24z"/><path d="m200 160h120v16h-120z"/><path d="m136 200h-40a8.00008 8.00008 0 0 0 -8 8v40a8.00008 8.00008 0 0 0 8 8h40a8.00008 8.00008 0 0 0 8-8v-40a8.00008 8.00008 0 0 0 -8-8zm-8 40h-24v-24h24z"/><path d="m160 240h24v16h-24z"/><path d="m296 240h24v16h-24z"/><path d="m200 240h80v16h-80z"/><path d="m136 280h-40a8.00008 8.00008 0 0 0 -8 8v40a8.00008 8.00008 0 0 0 8 8h40a8.00008 8.00008 0 0 0 8-8v-40a8.00008 8.00008 0 0 0 -8-8zm-8 40h-24v-24h24z"/><path d="m160 320h24v16h-24z"/><path d="m256 320h64v16h-64z"/><path d="m200 320h40v16h-40z"/><path d="m136 360h-40a8.00008 8.00008 0 0 0 -8 8v40a8.00008 8.00008 0 0 0 8 8h40a8.00008 8.00008 0 0 0 8-8v-40a8.00008 8.00008 0 0 0 -8-8zm-8 40h-24v-24h24z"/><path d="m160 400h24v16h-24z"/><path d="m288 400h32v16h-32z"/><path d="m200 400h72v16h-72z"/></svg>