<?xml version="1.0" encoding="iso-8859-1"?>
<!-- Generator: Adobe Illustrator 19.0.0, SVG Export Plug-In . SVG Version: 6.00 Build 0)  -->
<svg version="1.1" id="Capa_1" xmlns="http://www.w3.org/2000/svg" xmlns:xlink="http://www.w3.org/1999/xlink" x="0px" y="0px"
	 viewBox="0 0 512 512" style="enable-background:new 0 0 512 512;" xml:space="preserve">
<g>
	<g>
		<path d="M466.421,110.111c-3.152-4.535-9.384-5.657-13.919-2.504c-4.535,3.152-5.656,9.383-2.505,13.918
			c65.153,93.75,53.75,220.486-27.115,301.352c-92.016,92.018-241.739,92.018-333.756,0
			c-44.575-44.574-69.123-103.84-69.123-166.878S44.549,133.695,89.125,89.12c81.523-81.522,208.91-92.474,302.894-26.034
			c4.511,3.188,10.75,2.116,13.938-2.393c3.188-4.51,2.116-10.75-2.394-13.938c-48.7-34.427-108.446-50.738-168.215-45.928
			c-60.462,4.866-117.415,31.2-160.367,74.151C26.629,123.33,0.001,187.618,0.001,255.999S26.63,388.666,74.981,437.02
			C123.334,485.372,187.622,512,256.002,512s132.668-26.629,181.021-74.98c42.699-42.7,69.005-99.307,74.07-159.391
			C516.1,218.257,500.234,158.766,466.421,110.111z"/>
	</g>
</g>
<g>
	<g>
		<path d="M437.127,75.081l-0.189-0.19c-3.899-3.91-10.232-3.918-14.142-0.018c-3.911,3.9-3.919,10.232-0.019,14.142l0.189,0.19
			c1.953,1.958,4.517,2.938,7.08,2.938c2.555,0,5.11-0.973,7.062-2.92C441.019,85.324,441.027,78.992,437.127,75.081z"/>
	</g>
</g>
<g>
	<g>
		<path d="M376.576,165.601h-85.081c-9.609,0-17.428-7.818-17.428-17.428c0-5.523-4.478-10-10-10s-10,4.477-10,10
			c0,20.638,16.79,37.428,37.428,37.428h85.081c9.609,0,17.428,7.818,17.428,17.428v4.635c0,5.523,4.477,10,10,10
			c5.522,0,10-4.477,10-10v-4.635C414.004,182.391,397.214,165.601,376.576,165.601z"/>
	</g>
</g>
<g>
	<g>
		<path d="M385.085,404.878L107.122,126.916c-2.024-2.023-4.832-3.088-7.672-2.911c-2.856,0.172-5.502,1.559-7.268,3.81
			c-64.785,82.595-57.588,200.933,16.741,275.262c40.358,40.358,93.688,60.924,147.228,60.924
			c45.066,0,90.284-14.574,128.034-44.183c2.251-1.766,3.638-4.411,3.81-7.267C388.168,409.694,387.107,406.901,385.085,404.878z
			 M188.982,247.998h10.938l36,36h-46.938V247.998z M256.143,444.007c-48.389-0.002-96.6-18.593-133.077-55.071
			c-64.492-64.492-73.076-165.631-21.868-239.658l78.721,78.721h-71.917c-5.522,0-10,4.477-10,10v56c0,5.523,4.478,10,10,10H255.92
			l106.804,106.804C330.568,433.047,293.304,444.009,256.143,444.007z M168.982,247.999v36h-50.979v-36H168.982z"/>
	</g>
</g>
<g>
	<g>
		<path d="M199.543,151.457c-1.86-1.86-4.431-2.93-7.07-2.93c-2.63,0-5.21,1.07-7.07,2.93c-1.859,1.86-2.93,4.44-2.93,7.07
			s1.07,5.21,2.93,7.07c1.86,1.86,4.44,2.93,7.07,2.93s5.209-1.069,7.07-2.93c1.859-1.86,2.93-4.44,2.93-7.07
			S201.403,153.317,199.543,151.457z"/>
	</g>
</g>
<g>
	<g>
		<path d="M403.083,108.92c-74.33-74.33-192.666-81.527-275.262-16.741c-2.251,1.766-3.638,4.411-3.81,7.267
			c-0.173,2.856,0.887,5.649,2.91,7.672l35.104,35.104c3.906,3.906,10.236,3.906,14.143,0c3.905-3.905,3.905-10.237,0-14.142
			l-26.886-26.886c74.028-51.208,175.167-42.624,239.657,21.868c64.492,64.492,73.076,165.631,21.868,239.658l-58.721-58.721h51.917
			c5.522,0,10-4.477,10-10v-56c0-5.523-4.478-10-10-10H276.336c-0.08,0-0.158,0.01-0.238,0.012l-52.678-52.679
			c-3.904-3.905-10.236-3.905-14.143,0c-3.905,3.905-3.905,10.237,0,14.142L404.883,385.08c1.881,1.881,4.427,2.929,7.071,2.929
			c0.2,0,0.401-0.006,0.602-0.018c2.856-0.172,5.502-1.559,7.268-3.81C484.61,301.586,477.413,183.248,403.083,108.92z
			 M372.984,247.999h21.02v36h-21.02V247.999z M296.086,247.999h56.897v36h-20.897L296.086,247.999z"/>
	</g>
</g>
<g>
</g>
<g>
</g>
<g>
</g>
<g>
</g>
<g>
</g>
<g>
</g>
<g>
</g>
<g>
</g>
<g>
</g>
<g>
</g>
<g>
</g>
<g>
</g>
<g>
</g>
<g>
</g>
<g>
</g>
</svg>
