<svg height="512pt" viewBox="-57 0 511 512" width="512pt" xmlns="http://www.w3.org/2000/svg"><path d="m267.074219 0h-136.535157c-18.84375.0195312-34.113281 15.289062-34.132812 34.132812v13.078126c-61.210938 49.117187-60.496094 118.300781-59.851562 169.097656.058593 4.875.117187 9.582031.117187 14.089844 0 16.304687-8.089844 33.351562-16.65625 51.402343-16.375 34.503907-34.933594 73.609375 1.648437 116.285157 12.519532 14.054687 27.707032 25.484374 44.671876 33.628906l-14.214844 47.394531c-2.292969 7.75-.792969 16.128906 4.042968 22.601563 4.839844 6.476562 12.449219 10.289062 20.53125 10.289062h244.222657c8.085937.003906 15.699219-3.8125 20.539062-10.292969 4.835938-6.484375 6.328125-14.867187 4.027344-22.621093l-14.207031-47.371094c16.96875-8.144532 32.152344-19.570313 44.675781-33.621094 36.582031-42.679688 18.023437-81.785156 1.648437-116.289062-8.570312-18.054688-16.660156-35.101563-16.660156-51.40625 0-4.507813.054688-9.214844.113282-14.089844.648437-50.796875 1.367187-119.980469-59.847657-169.097656v-13.078126c-.019531-18.84375-15.289062-34.1132808-34.132812-34.132812zm17.066406 34.132812v68.265626c.082031 14.601562-6.136719 28.527343-17.066406 38.210937v-12.609375c.003906-12.207031-3.757813-24.121094-10.769531-34.113281-3.523438-11.074219-5.640626-22.550781-6.296876-34.152344.089844-3.933594.425782-7.851563 1-11.742187 2.058594-10.320313 1.300782-21-2.191406-30.925782h18.257813c9.417969.011719 17.054687 7.644532 17.066406 17.066406zm-85.335937 349.867188c-11.644532.242188-23.257813 1.304688-34.757813 3.175781-23.890625 3.335938-45.054687 6.238281-66.027344-7.425781 2.859375-9.203125 6.617188-18.101562 11.21875-26.570312.597657.957031 1.265625 1.871093 2 2.730468 7.253907 7.5625 17.441407 11.597656 27.90625 11.046875 8.382813-.164062 16.671875-1.796875 24.488281-4.832031 22.664063-8.742188 47.769532-8.730469 70.425782.03125 7.773437 2.96875 16 4.582031 24.320312 4.769531 10.40625.542969 20.542969-3.402343 27.84375-10.835937.792969-.921875 1.511719-1.898438 2.15625-2.929688 4.601563 8.472656 8.363282 17.378906 11.226563 26.585938-20.980469 13.667968-42.148438 10.757812-66.035157 7.425781-11.5-1.871094-23.117187-2.933594-34.765624-3.171875zm-91.257813-200.140625c10.328125-5.554687 19.726563-4.976563 34.390625 2.089844.234375.117187 1.015625.492187 1.257812.585937l.59375.296875c.578126.234375 1.183594.398438 1.800782.488281l-18.996094 85.492188-14.253906-11.878906c-1.03125-.84375-2.132813-1.605469-3.285156-2.277344-6.476563-50.476562-3.964844-70.765625-1.507813-74.796875zm55.992187-137.984375c-1.425781-11.394531-2.382812-19.902344 4.980469-28.808594h60.570313c7.367187 8.90625 6.410156 17.414063 4.984375 28.808594-.671875 4.589844-1.046875 9.21875-1.132813 13.859375.105469 5.070313.617188 10.125 1.523438 15.113281-8.390625-4.320312-17.6875-6.578125-27.125-6.582031h-17.066406c-9.4375.003906-18.734376 2.261719-27.125 6.582031.90625-4.988281 1.417968-10.042968 1.523437-15.113281-.085937-4.640625-.464844-9.269531-1.132813-13.859375zm-39.824218 298.019531c2.042968-.421875 3.863281-1.574219 5.117187-3.238281l2.050781-2.730469.007813-.007812 2.425781-3.242188c.113282.039063.222656.097657.34375.132813 7.042969 1.457031 14.371094.601562 20.890625-2.445313 28.519531-10.792969 59.996094-10.792969 88.515625 0 6.519532 3.046875 13.847656 3.902344 20.894532 2.445313.109374-.035156.195312-.125.304687-.160156l4.519531 6.027343c1.261719 1.679688 3.09375 2.832031 5.152344 3.242188l.042969.011719c-.117188.234374-.246094.460937-.386719.679687-4.113281 3.808594-9.632812 5.71875-15.21875 5.257813-6.320312-.191407-12.5625-1.453126-18.460938-3.734376-26.449218-10.148437-55.71875-10.15625-82.175781-.015624-23.859375 8.703124-32.734375-.386719-33.824219-1.628907-.164062-.171875-.3125-.355469-.449218-.546875zm131.949218-25.6875c-2.296874-.410156-4.554687-1.035156-6.734374-1.867187-32.304688-12.179688-67.945313-12.179688-100.25 0-2.171876.824218-4.417969 1.453125-6.703126 1.871094 2.570313-9.183594 1.929688-18.96875-1.820312-27.734376l22.824219-102.742187h71.652343l22.863282 102.917969c-3.65625 8.726562-4.300782 18.421875-1.832032 27.554687zm-14.191406-147.539062h-85.332031c-4.710937-.003907-8.53125-3.824219-8.535156-8.535157v-34.132812c.027343-23.550781 19.113281-42.640625 42.667969-42.667969h17.066406c23.550781.027344 42.636718 19.117188 42.667968 42.667969v34.132812c-.003906 4.710938-3.824218 8.53125-8.535156 8.535157zm-150.859375 103.054687c.800781-.578125 1.683594-1.027344 2.621094-1.332031 1.648437.722656 3.496094.871094 5.238281.421875.15625-.039062.269532-.152344.421875-.199219.90625.28125 1.742188.75 2.453125 1.375l15.867188 13.214844c9.707031 8.058594 12.058594 22.003906 5.53125 32.800781-.398438.785156-.878906 1.53125-1.433594 2.21875l-4.085938 5.457032-5.296874 1.195312-18.871094 3.753906c-4.34375.847656-8.613282-1.753906-9.859375-6l-6.238281-22.058594c-2.871094-10.195312.789062-21.109374 9.230468-27.511718zm189.867188 54.101563-4.191407-5.582031c-8.183593-10.898438-6.390624-26.300782 4.082032-35.023438l15.933594-13.273438c3.035156-2.539062 7.417968-2.652343 10.578124-.269531l4.546876 3.410157c8.453124 6.390624 12.125 17.308593 9.25 27.511718l-6.289063 22.015625c-1.246094 4.253907-5.523437 6.863281-9.875 6.023438zm8.082031-69.214844c-1.113281.660156-2.179688 1.40625-3.179688 2.226563l-14.367187 11.960937-19.375-87.195313c.585937-.257812 1.109375-.613281 1.667969-.910156l1.109375 1.839844 1.257812-.585938c14.660157-7.050781 24.078125-7.644531 34.390625-2.089843 2.457032 4.03125 4.964844 24.304687-1.503906 74.753906zm-175.089844-224.476563c.011719-9.421874 7.644532-17.054687 17.066406-17.066406h18.257813c-3.496094 9.925782-4.25 20.605469-2.191406 30.925782.574219 3.890624.910156 7.808593 1 11.742187-.65625 11.601563-2.773438 23.078125-6.296875 34.152344-7.011719 9.992187-10.773438 21.90625-10.769532 34.113281v12.609375c-10.929687-9.683594-17.148437-23.609375-17.066406-38.210937zm-17.066406 35.839844v32.425782c-.101562 24.359374 12.945312 46.878906 34.132812 58.902343v.832031c0 .675782.148438 1.308594.199219 1.972657-10.972656-2.363281-22.433593-.515625-32.105469 5.179687-5.003906 2.804688-14.75 8.335938-9.109374 68.484375-10.242188-8.417969-22.6875-13.722656-35.851563-15.285156-.023437-2.140625-.027344-4.183594-.058594-6.390625-.578125-46.382812-1.144531-103.070312 42.792969-146.121094zm-43.359375 169.699219c12.546875 1.214844 23.96875 7.757813 31.359375 17.964844-1.390625.683593-2.722656 1.480469-3.976562 2.390625l-4.53125 3.421875c-14.042969 10.671875-20.132813 28.847656-15.351563 45.824219l6.25 22.0625c3.207031 10.941406 13.222656 18.480468 24.625 18.535156.09375 0 .191406-.027344.285156-.027344-2.960937 5.90625-5.558593 11.988281-7.78125 18.207031-18.070312-18.082031-39.761719-32.140625-63.644531-41.253906 3.875-13.003906 8.945312-25.613281 15.148438-37.679687 8.363281-15.484376 14.304687-32.160157 17.617187-49.445313zm276.074219 244.292969c.765625 2.585937.265625 5.382812-1.351563 7.542968-1.613281 2.160157-4.15625 3.429688-6.851562 3.425782h-244.222657c-2.695312.003906-5.230468-1.261719-6.847656-3.417969-1.617187-2.152344-2.125-4.941406-1.371094-7.527344l13.554688-45.199219c37.394531 13.914063 76.882812 21.355469 116.773438 22.011719 39.890624-.65625 79.378906-8.097656 116.773437-22.011719zm33.878906-96.984375c-48.019531 56.019531-163.042969 56.753906-164.195312 56.753906-1.148438 0-116.171876-.734375-164.191407-56.753906-10.902343-11.597657-16.9375-26.941407-16.859375-42.859375 20.828125 8.621094 39.71875 21.328125 55.550782 37.375 15.738281 16.820312 37.90625 26.125 60.933593 25.570312 10.78125-.246094 21.53125-1.246094 32.175781-2.988281 10.714844-1.753906 21.539063-2.757813 32.390626-3.011719 10.855468.253906 21.679687 1.261719 32.394531 3.011719 10.640625 1.742187 21.390625 2.742187 32.167969 2.992187 23.03125.554688 45.199218-8.75 60.9375-25.570312 15.832031-16.046875 34.722656-28.757812 55.554687-37.375.078125 15.917969-5.957031 31.257812-16.863281 42.855469zm-.816406-97.863281c6.203125 12.0625 11.277344 24.675781 15.148437 37.675781-23.882812 9.117187-45.570312 23.175781-63.640625 41.257812-2.222656-6.222656-4.824218-12.304687-7.785156-18.214843.074219 0 .148438.023437.21875.023437 11.433594-.03125 21.480469-7.585937 24.683594-18.558594l6.292968-22.015625c4.777344-17.003906-1.34375-35.195312-15.425781-45.851562l-4.550781-3.414063c-1.207031-.898437-2.488281-1.695312-3.835938-2.371093 7.367188-10.203126 18.757813-16.75 31.277344-17.976563 3.316406 17.285156 9.253906 33.957031 17.613282 49.445313zm-18.183594-73.023438c-.03125 2.226562-.035156 4.285156-.054688 6.4375-13.128906 1.5-25.554687 6.710938-35.828124 15.015625 5.59375-59.949219-4.140626-65.460937-9.148438-68.273437-9.667969-5.6875-21.117188-7.546876-32.085938-5.203126.042969-.652343.191407-1.273437.191407-1.9375v-.832031c21.183593-12.023437 34.234375-34.542969 34.132812-58.902343v-32.425782c43.9375 43.050782 43.367188 99.738282 42.789063 146.121094zm0 0"/></svg>