<?xml version="1.0" encoding="iso-8859-1"?>
<!-- Generator: Adobe Illustrator 19.0.0, SVG Export Plug-In . SVG Version: 6.00 Build 0)  -->
<svg version="1.1" id="Capa_1" xmlns="http://www.w3.org/2000/svg" xmlns:xlink="http://www.w3.org/1999/xlink" x="0px" y="0px"
	 viewBox="0 0 512 512" style="enable-background:new 0 0 512 512;" xml:space="preserve">
<g>
	<g>
		<path d="M466.42,110.111c-3.152-4.535-9.384-5.657-13.919-2.505c-4.535,3.152-5.656,9.384-2.505,13.919
			c65.153,93.751,53.75,220.486-27.115,301.352c-92.016,92.018-241.739,92.018-333.756,0
			c-44.575-44.574-69.123-103.84-69.123-166.878S44.549,133.695,89.125,89.12C170.648,7.597,298.036-3.354,392.019,63.085
			c4.511,3.188,10.751,2.116,13.938-2.393c3.188-4.51,2.116-10.75-2.394-13.938c-48.7-34.427-108.442-50.738-168.215-45.928
			c-60.462,4.866-117.415,31.2-160.367,74.151C26.629,123.33,0.001,187.618,0.001,255.999S26.63,388.666,74.981,437.02
			C123.335,485.372,187.622,512,256.003,512s132.668-26.629,181.021-74.98c42.699-42.7,69.005-99.307,74.07-159.391
			C516.098,218.258,500.233,158.766,466.42,110.111z"/>
	</g>
</g>
<g>
	<g>
		<path d="M437.127,75.081l-0.189-0.19c-3.899-3.91-10.232-3.918-14.142-0.018c-3.911,3.9-3.919,10.232-0.019,14.142l0.189,0.19
			c1.953,1.958,4.517,2.938,7.08,2.938c2.555,0,5.11-0.973,7.062-2.92C441.019,85.324,441.027,78.992,437.127,75.081z"/>
	</g>
</g>
<g>
	<g>
		<path d="M404.003,227.998h-31.02v-4.183c0-22.249-18.101-40.349-40.349-40.349h-14.989c-11.221,0-20.349-9.128-20.349-20.349
			c0-5.523-4.478-10-10-10c-5.522,0-10,4.477-10,10c0,22.249,18.101,40.349,40.349,40.349h14.989
			c11.221,0,20.349,9.128,20.349,20.349v4.183H108.002c-5.522,0-10,4.477-10,10v56c0,5.523,4.478,10,10,10h296.002
			c5.522,0,10-4.477,10-10v-56C414.003,232.475,409.525,227.998,404.003,227.998z M168.981,283.999h-50.979v-36h50.979V283.999z
			 M352.983,283.999H188.981v-36h164.002V283.999z M394.003,283.999h-21.02v-36h21.02V283.999z"/>
	</g>
</g>
<g>
	<g>
		<path d="M124.461,388.209c-1.86-1.86-4.44-2.93-7.07-2.93s-5.21,1.069-7.07,2.93c-1.859,1.86-2.93,4.44-2.93,7.07
			c0,2.63,1.07,5.21,2.93,7.07c1.86,1.86,4.44,2.93,7.07,2.93s5.21-1.07,7.07-2.93c1.859-1.86,2.93-4.44,2.93-7.07
			C127.391,392.649,126.321,390.069,124.461,388.209z"/>
	</g>
</g>
<g>
	<g>
		<path d="M256.003,49.997c-113.59,0-206.001,92.412-206.001,206.001c0,36.183,9.517,71.775,27.521,102.931
			c2.763,4.782,8.878,6.418,13.662,3.655c4.781-2.763,6.418-8.88,3.654-13.662c-16.248-28.117-24.837-60.25-24.837-92.924
			c0-102.562,83.44-186.001,186.001-186.001s186.001,83.44,186.001,186.001S358.564,442,256.003,442
			c-32.566,0-64.607-8.536-92.66-24.685c-4.788-2.756-10.901-1.108-13.655,3.677c-2.757,4.786-1.11,10.9,3.676,13.656
			C184.446,452.542,219.937,462,256.003,462c113.59,0,206.001-92.412,206.001-206.001S369.592,49.997,256.003,49.997z"/>
	</g>
</g>
<g>
	<g>
		<path d="M354.936,136.287c-10.149,0-18.406-8.257-18.406-18.407v-7.014c0-5.523-4.477-10-10-10c-5.522,0-10,4.477-10,10v7.014
			c0,21.178,17.229,38.407,38.406,38.407c10.149,0,18.407,8.257,18.407,18.407v6.805c0,5.523,4.478,10,10,10s10-4.477,10-10v-6.805
			C393.343,153.516,376.114,136.287,354.936,136.287z"/>
	</g>
</g>
<g>
</g>
<g>
</g>
<g>
</g>
<g>
</g>
<g>
</g>
<g>
</g>
<g>
</g>
<g>
</g>
<g>
</g>
<g>
</g>
<g>
</g>
<g>
</g>
<g>
</g>
<g>
</g>
<g>
</g>
</svg>
